HIERARCHY
ROOT Hips
{
	OFFSET -0.001795 -0.223333 0.028219
	CHANNELS 6 Xposition Yposition Zposition Zrotation Yrotation Xrotation 
	JOINT LeftUpLeg
	{
		OFFSET 0.069520 -0.091406 -0.006815
		CHANNELS 3 Zrotation Yrotation Xrotation
		JOINT LeftLeg
		{
			OFFSET 0.034277 -0.375199 -0.004496
			CHANNELS 3 Zrotation Yrotation Xrotation
			JOINT LeftFoot
			{
				OFFSET -0.013596 -0.397961 -0.043693
				CHANNELS 3 Zrotation Yrotation Xrotation
				JOINT LeftToe
				{
					OFFSET 0.026358 -0.055791 0.119288
					CHANNELS 3 Zrotation Yrotation Xrotation
					End Site
					{
						OFFSET 0.000000 0.000000 0.000000
					}
				}
			}
		}
	}
	JOINT RightUpLeg
	{
		OFFSET -0.067670 -0.090522 -0.004320
		CHANNELS 3 Zrotation Yrotation Xrotation
		JOINT RightLeg
		{
			OFFSET -0.038290 -0.382569 -0.008850
			CHANNELS 3 Zrotation Yrotation Xrotation
			JOINT RightFoot
			{
				OFFSET 0.015774 -0.398415 -0.042312
				CHANNELS 3 Zrotation Yrotation Xrotation
				JOINT RightToe
				{
					OFFSET -0.025372 -0.048144 0.123348
					CHANNELS 3 Zrotation Yrotation Xrotation
					End Site
					{
						OFFSET 0.000000 0.000000 0.000000
					}
				}
			}
		}
	}
	JOINT Spine
	{
		OFFSET -0.002533 0.108963 -0.026696
		CHANNELS 3 Zrotation Yrotation Xrotation
		JOINT Spine1
		{
			OFFSET 0.005487 0.135180 0.001092
			CHANNELS 3 Zrotation Yrotation Xrotation
			JOINT Spine2
			{
				OFFSET 0.001457 0.052922 0.025425
				CHANNELS 3 Zrotation Yrotation Xrotation
				JOINT Neck
				{
					OFFSET -0.002778 0.213870 -0.042857
					CHANNELS 3 Zrotation Yrotation Xrotation
					JOINT Head
					{
						OFFSET 0.005152 0.064970 0.051349
						CHANNELS 3 Zrotation Yrotation Xrotation
						End Site
						{
							OFFSET 0.000000 0.000000 0.000000
						}
					}
				}
				JOINT LeftShoulder
				{
					OFFSET 0.078845 0.121749 -0.034090
					CHANNELS 3 Zrotation Yrotation Xrotation
					JOINT LeftArm
					{
						OFFSET 0.090977 0.030469 -0.008868
						CHANNELS 3 Zrotation Yrotation Xrotation
						JOINT LeftForeArm
						{
							OFFSET 0.259612 -0.012772 -0.027456
							CHANNELS 3 Zrotation Yrotation Xrotation
							JOINT LeftHand
							{
								OFFSET 0.249234 0.008986 -0.001171
								CHANNELS 3 Zrotation Yrotation Xrotation
								End Site
								{
									OFFSET 0.000000 0.000000 0.000000
								}
							}
						}
					}
				}
				JOINT RightShoulder
				{
					OFFSET -0.081759 0.118833 -0.038615
					CHANNELS 3 Zrotation Yrotation Xrotation
					JOINT RightArm
					{
						OFFSET -0.096012 0.032551 -0.009143
						CHANNELS 3 Zrotation Yrotation Xrotation
						JOINT RightForeArm
						{
							OFFSET -0.253742 -0.013329 -0.021401
							CHANNELS 3 Zrotation Yrotation Xrotation
							JOINT RightHand
							{
								OFFSET -0.255298 0.007772 -0.005559
								CHANNELS 3 Zrotation Yrotation Xrotation
								End Site
								{
									OFFSET 0.000000 0.000000 0.000000
								}
							}
						}
					}
				}
			}
		}
	}
}
MOTION
Frames: 8
Frame Time: 0.050000
0.000000 0.927961 0.000000 -1.324987 -25.919710 3.456453 8.272491 0.470498 -10.746570 -10.229723 2.525702 6.239721 5.363152 10.762120 8.861327 0.000000 0.000000 0.000000 -7.413406 1.294495 -12.782736 4.748070 0.309901 13.421947 -4.776618 -10.806605 -0.281567 0.000000 0.000000 0.000000 4.798889 -0.785215 17.308055 -7.455735 2.234802 -14.001322 -0.416498 8.152037 16.694089 7.412648 -5.104820 -11.359715 0.000000 0.000000 0.000000 -17.448551 -20.732520 11.594664 -61.889983 -42.856031 15.965364 13.514068 -9.010114 -0.455537 0.000000 0.000000 0.000000 17.448572 17.502994 6.067593 73.034169 34.758698 14.799387 -6.933928 20.910814 -0.478514 0.000000 0.000000 0.000000 
-0.001452 0.925812 -0.002054 -1.636738 -25.766705 3.009000 9.944566 0.796062 -11.424781 -12.188690 3.340506 8.398170 5.016653 10.220369 8.495918 0.000000 0.000000 0.000000 -7.109307 1.328278 -13.378967 5.146273 0.391247 15.513226 -5.080096 -11.206185 -0.868970 0.000000 0.000000 0.000000 4.751780 -0.767049 18.657992 -5.648458 1.593568 -14.298824 -1.798450 8.483365 16.613089 8.887250 -6.751027 -7.203796 0.000000 0.000000 0.000000 -21.679047 -20.369726 12.205513 -58.264789 -43.837907 14.764957 14.394672 -9.274252 -0.522369 0.000000 0.000000 0.000000 15.585960 18.510331 6.744574 75.218782 35.988306 16.304866 -6.600197 23.646930 -0.444076 0.000000 0.000000 0.000000 
-0.002675 0.924437 -0.003827 -1.671114 -23.476441 3.173258 9.863509 0.775504 -13.189718 -11.659084 3.343730 10.448301 4.093664 8.706525 7.889894 0.000000 0.000000 0.000000 -7.271122 1.422270 -14.996645 5.944695 0.409679 18.870337 -5.973570 -13.381014 -1.083171 0.000000 0.000000 0.000000 5.087762 -0.899712 20.124923 -6.336210 1.833657 -15.794904 -1.198646 6.702245 17.293288 7.388342 -5.725345 -6.817963 0.000000 0.000000 0.000000 -23.165798 -19.924057 12.543847 -57.453446 -46.277364 15.762658 15.511020 -7.602946 -0.410339 0.000000 0.000000 0.000000 14.775719 19.259722 6.971479 74.454810 38.217733 17.584649 -6.764528 21.396698 -0.425227 0.000000 0.000000 0.000000 
-0.003906 0.923104 -0.005061 -1.315366 -23.850027 3.254980 9.472687 0.756542 -14.100416 -11.356511 3.436800 11.640691 4.318303 9.070319 7.731016 0.000000 0.000000 0.000000 -7.890449 1.482089 -15.757770 6.642015 0.358320 19.871934 -6.045793 -13.207442 -1.855419 0.000000 0.000000 0.000000 5.448856 -0.943654 19.898864 -6.414647 1.861808 -15.758205 -1.485850 6.802427 17.933588 7.696874 -6.071747 -6.360131 0.000000 0.000000 0.000000 -24.120125 -21.412591 13.769564 -56.285979 -48.499223 16.523327 18.528572 -8.574982 -0.633652 0.000000 0.000000 0.000000 13.586985 19.700991 7.109882 75.718001 40.376555 19.561122 -7.272676 21.699818 -0.506056 0.000000 0.000000 0.000000 
-0.005425 0.923319 -0.005836 -0.987130 -23.348178 3.254851 9.264206 0.741127 -15.101491 -11.274780 3.572382 12.962821 4.058110 8.646156 8.157324 0.000000 0.000000 0.000000 -8.489847 1.536848 -16.779401 6.950213 0.406536 21.827930 -5.838988 -12.760484 -2.053015 0.000000 0.000000 0.000000 5.944463 -1.051157 20.352166 -6.750199 1.986331 -15.703030 -2.006348 7.067613 18.243149 8.541324 -6.637514 -6.982469 0.000000 0.000000 0.000000 -24.719451 -22.333098 14.271362 -55.327342 -49.707441 16.796650 22.280727 -9.075382 -0.872168 0.000000 0.000000 0.000000 12.901017 19.846402 7.296718 75.399256 42.575153 21.205469 -7.632506 22.925037 -0.581871 0.000000 0.000000 0.000000 
-0.007119 0.924175 -0.006214 -0.769974 -21.757380 3.956998 8.459519 0.551964 -16.539899 -10.088041 3.158926 13.566964 3.504451 7.765838 8.383531 0.000000 0.000000 0.000000 -9.241493 1.484200 -17.000159 7.799106 0.102245 21.878369 -5.963184 -13.006267 -2.519640 0.000000 0.000000 0.000000 6.005230 -1.135467 19.610584 -6.279194 1.871083 -15.547475 -1.526806 7.297221 18.294171 8.739396 -6.869336 -5.990903 0.000000 0.000000 0.000000 -25.615288 -23.012203 14.586336 -54.121964 -50.426724 16.696115 26.302607 -12.274168 -1.663111 0.000000 0.000000 0.000000 11.271044 21.088771 7.975360 73.549631 45.016283 22.486264 -9.185452 24.794768 -0.921162 0.000000 0.000000 0.000000 
-0.008989 0.925078 -0.006185 -0.213233 -20.070032 3.473672 7.473862 0.293265 -17.049563 -9.162346 2.895444 14.633199 2.785694 6.661162 8.717485 0.000000 0.000000 0.000000 -9.405768 1.389190 -16.727435 7.443723 0.135714 22.930888 -6.373214 -14.065568 -2.652802 0.000000 0.000000 0.000000 6.234585 -1.231175 19.579409 -5.871852 1.784917 -15.200318 -1.876074 8.421955 18.234440 9.235017 -7.246153 -5.397963 0.000000 0.000000 0.000000 -24.157323 -22.885744 13.355821 -57.282928 -51.072563 18.689455 31.878355 -16.355131 -3.092756 0.000000 0.000000 0.000000 10.939848 21.385890 8.473223 73.002112 47.109777 24.288056 -11.886747 26.123568 -1.473143 0.000000 0.000000 0.000000 
-0.010879 0.925698 -0.005483 0.227846 -17.824045 3.425220 5.933556 -0.102490 -17.333728 -7.241197 2.161091 14.593898 1.989558 5.392793 8.490919 0.000000 0.000000 0.000000 -9.225237 1.275522 -16.067801 6.547034 0.208793 22.974615 -6.830818 -15.222717 -2.899427 0.000000 0.000000 0.000000 7.064627 -1.439925 19.160728 -5.479458 1.700751 -15.636039 -1.320631 10.006333 18.492803 10.251269 -8.386917 -3.274442 0.000000 0.000000 0.000000 -22.204205 -22.607710 11.830900 -60.337924 -50.659238 19.919759 37.545267 -21.900030 -5.543665 0.000000 0.000000 0.000000 9.160957 23.157042 9.456281 69.943843 49.931291 25.510770 -13.785305 27.064687 -1.900078 0.000000 0.000000 0.000000 
